<svg viewBox="0 0 276 42" xmlns="http://www.w3.org/2000/svg" data-logo="logo">
        <g transform="translate(0, 1) rotate(0)" id="logogram" style="opacity: 1;"><path fill="#15E3FF" d="M13.0964 20.3536L17.6262 22.4473L17.046 27.6527L8.94876 36.8282C4.2486 33.8023 0.898178 28.8615 0 23.108L13.0964 20.3536Z"></path><path fill="#348DFC" d="M25.183 25.94L31.2414 36.3789C27.992 38.6605 24.0331 40 19.7612 40C18.3744 40 17.0206 39.8587 15.7133 39.59L17.046 27.6527L20.4765 23.7656L25.183 25.94Z"></path><path fill="#FD4873" d="M39.1022 14.881C39.5332 16.5143 39.763 18.2294 39.763 19.9982C39.763 24.1145 38.5192 27.9403 36.3874 31.1207L25.184 25.9405L22.5551 21.4123L25.8574 17.6692L39.1022 14.881Z"></path><path fill="#FFC700" d="M17.046 27.6524L17.0458 27.6527L17.1686 26.552L17.046 27.6524Z"></path><path fill="#FFC700" d="M20.132 0C26.1505 0.109415 31.5194 2.877 35.1148 7.17842L25.8561 17.6694L20.9792 18.6959L18.519 14.4574L20.132 0Z"></path><path fill="#00E7B9" d="M18.519 14.4574L17.9745 19.3269L13.0991 20.353L0.514709 14.5347C2.09964 8.94044 6.05794 4.3436 11.2327 1.9007L18.519 14.4574Z"></path></g>
        <g transform="translate(46, 7.5)" id="logotype" style="opacity: 1;"><path d="M18.81 26.63L11.53 4.47Q11.14 3.32 10.41 2.76Q9.68 2.20 8.21 2.20L8.21 2.20L7.54 2.20L7.54 1.08L18.91 1.08L18.91 2.20L17.90 2.20Q17.41 2.20 17.11 2.55Q16.82 2.90 16.82 3.42L16.82 3.42Q16.82 3.84 16.99 4.30L16.99 4.30L21.40 17.77L24.69 6.57L23.92 4.23Q23.54 3.07 22.92 2.64Q22.31 2.20 21.16 2.20L21.16 2.20L20.56 2.20L20.56 1.08L32.04 1.08L32.04 2.20L30.33 2.20Q29.84 2.20 29.52 2.51Q29.21 2.83 29.21 3.21L29.21 3.21Q29.21 3.56 29.31 3.98L29.31 3.98L33.76 17.63L36.94 6.12Q37.01 5.87 37.10 5.26Q37.19 4.65 37.19 4.23L37.19 4.23Q37.19 3.46 36.75 2.83Q36.31 2.20 35.33 2.20L35.33 2.20L33.58 2.20L33.58 1.08L43.03 1.08L43.03 2.20L41.95 2.20Q39.60 2.20 38.59 5.38L38.59 5.38L32.67 26.63L31.20 26.63L25.46 8.92L20.28 26.63L18.81 26.63ZM44.43 26L44.43 24.88L46.88 24.88Q47.37 24.88 47.55 24.69Q47.72 24.50 47.72 24.04L47.72 24.04L47.72 3.04Q47.72 2.55 47.55 2.37Q47.37 2.20 46.88 2.20L46.88 2.20L44.43 2.20L44.43 1.08L64.10 1.08L64.31 9.20L63.19 9.20Q63.19 8.95 62.82 7.63Q62.46 6.29 61.79 5.21L61.79 5.21Q60.99 3.81 59.94 3.00Q58.89 2.20 57.59 2.20L57.59 2.20L53.74 2.20Q53.29 2.20 53.09 2.37Q52.90 2.55 52.90 3.04L52.90 3.04L52.90 12.70L54.69 12.70Q55.63 12.70 56.44 11.93Q57.24 11.16 57.71 10.02Q58.19 8.88 58.19 7.87L58.19 7.87L59.31 7.87L59.31 18.82L58.19 18.82Q58.19 17.77 57.71 16.64Q57.24 15.50 56.44 14.73Q55.63 13.96 54.69 13.96L54.69 13.96L52.90 13.96L52.90 24.04Q52.90 24.50 53.09 24.69Q53.29 24.88 53.74 24.88L53.74 24.88L57.56 24.88Q59.48 24.88 60.78 23.34Q62.07 21.80 62.74 19.91L62.74 19.91Q63.02 19.11 63.23 17.91Q63.44 16.73 63.47 16.34L63.47 16.34L64.59 16.34L64.38 26L44.43 26ZM67.18 26L67.18 24.88L69.63 24.88Q70.12 24.88 70.30 24.69Q70.47 24.50 70.47 24.04L70.47 24.04L70.47 3.04Q70.47 2.55 70.30 2.37Q70.12 2.20 69.63 2.20L69.63 2.20L67.18 2.20L67.18 1.08L79.50 1.08Q81.57 1.08 83.37 1.85Q85.17 2.62 86.26 3.97Q87.34 5.31 87.34 7.03L87.34 7.03Q87.34 9.34 85.63 10.77Q83.91 12.21 81.43 12.87L81.43 12.87L81.43 13.08Q83.04 13.33 84.59 14.12Q86.15 14.90 87.17 16.20Q88.18 17.49 88.18 19.21L88.18 19.21Q88.18 21.34 87.06 22.88Q85.94 24.43 84.07 25.21Q82.20 26 79.96 26L79.96 26L67.18 26ZM75.65 12.42L78.87 12.42Q80.76 12.42 81.43 11.07Q82.09 9.72 82.09 7.03L82.09 7.03Q82.09 4.75 81.29 3.48Q80.48 2.20 79.08 2.20L79.08 2.20L76.49 2.20Q76.04 2.20 75.84 2.37Q75.65 2.55 75.65 3.04L75.65 3.04L75.65 12.42ZM76.49 24.88L78.87 24.88Q80.73 24.88 81.65 23.64Q82.58 22.39 82.58 19.21L82.58 19.21Q82.58 16.02 81.65 14.78Q80.73 13.54 78.87 13.54L78.87 13.54L75.65 13.54L75.65 24.04Q75.65 24.50 75.84 24.69Q76.04 24.88 76.49 24.88L76.49 24.88ZM100.71 26.63Q97.74 26.63 95.51 24.84Q93.29 23.06 92.10 20.07Q90.91 17.07 90.91 13.54L90.91 13.54Q90.91 10.04 92.24 7.03Q93.57 4.02 95.95 2.23Q98.33 0.45 101.34 0.45L101.34 0.45Q102.85 0.45 103.95 0.89Q105.05 1.32 106.31 2.16L106.31 2.16Q107.12 2.69 107.50 2.69L107.50 2.69Q107.96 2.69 108.27 2.02L108.27 2.02L108.87 0.73L110.02 0.73L110.02 10.81L108.94 10.81Q107.71 6.36 105.80 3.97Q103.90 1.57 101.34 1.57L101.34 1.57Q99.21 1.57 98.03 3.13Q96.86 4.68 96.86 8.29L96.86 8.29L96.86 18.79Q96.86 25.51 100.71 25.51L100.71 25.51Q102.53 25.51 103.69 23.97Q104.84 22.43 104.84 20.36L104.84 20.36L104.84 15.57Q104.84 15.08 104.67 14.90Q104.49 14.73 104.00 14.73L104.00 14.73L100.92 14.73L100.92 13.61L112.54 13.61L112.54 14.73L110.86 14.73Q110.41 14.73 110.21 14.90Q110.02 15.08 110.02 15.57L110.02 15.57L110.02 26.45L108.90 26.45L108.06 23.27Q107.96 22.92 107.75 22.66Q107.54 22.39 107.22 22.39L107.22 22.39Q106.59 22.39 106.14 23.13L106.14 23.13Q105.26 24.46 103.86 25.55Q102.46 26.63 100.71 26.63L100.71 26.63ZM114.43 26L114.43 24.88L116.88 24.88Q117.37 24.88 117.55 24.69Q117.72 24.50 117.72 24.04L117.72 24.04L117.72 3.04Q117.72 2.55 117.55 2.37Q117.37 2.20 116.88 2.20L116.88 2.20L114.43 2.20L114.43 1.08L134.10 1.08L134.31 9.20L133.19 9.20Q133.19 8.95 132.82 7.63Q132.46 6.29 131.79 5.21L131.79 5.21Q130.99 3.81 129.94 3.00Q128.88 2.20 127.59 2.20L127.59 2.20L123.74 2.20Q123.29 2.20 123.09 2.37Q122.90 2.55 122.90 3.04L122.90 3.04L122.90 12.70L124.69 12.70Q125.63 12.70 126.44 11.93Q127.24 11.16 127.71 10.02Q128.19 8.88 128.19 7.87L128.19 7.87L129.31 7.87L129.31 18.82L128.19 18.82Q128.19 17.77 127.71 16.64Q127.24 15.50 126.44 14.73Q125.63 13.96 124.69 13.96L124.69 13.96L122.90 13.96L122.90 24.04Q122.90 24.50 123.09 24.69Q123.29 24.88 123.74 24.88L123.74 24.88L127.56 24.88Q129.48 24.88 130.78 23.34Q132.07 21.80 132.74 19.91L132.74 19.91Q133.02 19.11 133.23 17.91Q133.44 16.73 133.47 16.34L133.47 16.34L134.59 16.34L134.38 26L114.43 26ZM155.73 26.63L142.64 7.90L142.50 7.90L142.50 21.24Q142.50 22.85 143.74 23.86Q144.98 24.88 146.91 24.88L146.91 24.88L146.91 26L136.69 26L136.69 24.88Q138.61 24.88 139.86 23.86Q141.10 22.85 141.10 21.24L141.10 21.24L141.10 6.29Q141.10 5.91 141.03 5.73Q140.96 5.56 140.72 5.21L140.72 5.21L139.31 3.11Q138.97 2.58 138.54 2.39Q138.13 2.20 137.32 2.20L137.32 2.20L136.69 2.20L136.69 1.08L144.46 1.08L155.66 17.07L155.66 5.84Q155.66 4.23 154.42 3.21Q153.17 2.20 151.25 2.20L151.25 2.20L151.25 1.08L161.47 1.08L161.47 2.20Q159.54 2.20 158.30 3.21Q157.06 4.23 157.06 5.84L157.06 5.84L157.06 26.63L155.73 26.63ZM162.52 26L162.52 24.88L164.97 24.88Q165.46 24.88 165.63 24.69Q165.81 24.50 165.81 24.04L165.81 24.04L165.81 3.04Q165.81 2.55 165.63 2.37Q165.46 2.20 164.97 2.20L164.97 2.20L162.52 2.20L162.52 1.08L174.28 1.08L174.28 2.20L171.83 2.20Q171.38 2.20 171.18 2.37Q170.99 2.55 170.99 3.04L170.99 3.04L170.99 24.04Q170.99 24.50 171.18 24.69Q171.38 24.88 171.83 24.88L171.83 24.88L174.28 24.88L174.28 26L162.52 26ZM186.50 26.63Q184.95 26.63 183.73 26.19Q182.50 25.75 181.70 25.09L181.70 25.09Q180.89 24.50 180.54 24.27Q180.19 24.04 179.88 24.04L179.88 24.04Q179.14 24.04 178.97 25.23L178.97 25.23L178.79 26.35L177.71 26.35L177.50 15.29L178.62 15.29Q179.11 17.95 180.28 20.29Q181.45 22.64 183.12 24.07Q184.78 25.51 186.70 25.51L186.70 25.51Q189.47 25.51 190.48 24.29Q191.50 23.06 191.50 21.52L191.50 21.52Q191.50 20.61 190.85 19.89Q190.20 19.17 188.98 18.37L188.98 18.37L181.49 13.54Q179.84 12.49 178.71 10.91Q177.57 9.34 177.57 7.17L177.57 7.17Q177.57 3.77 179.55 2.11Q181.53 0.45 184.43 0.45L184.43 0.45Q186.91 0.45 189.40 2.20L189.40 2.20Q190.20 2.83 190.66 2.83L190.66 2.83Q191.29 2.83 191.43 2.02L191.43 2.02L191.64 1.08L192.76 1.08L193.11 10.18L191.99 10.18Q191.32 7.76 190.13 5.80Q188.94 3.84 187.39 2.71Q185.83 1.57 184.15 1.57L184.15 1.57Q182.29 1.57 181.40 2.30Q180.51 3.04 180.51 4.51L180.51 4.51Q180.51 6.50 183.63 8.53L183.63 8.53L191.15 13.40Q192.59 14.34 193.44 15.99Q194.30 17.63 194.30 19.42L194.30 19.42Q194.30 21.24 193.43 22.88Q192.55 24.53 190.80 25.58Q189.05 26.63 186.50 26.63L186.50 26.63ZM196.82 26L196.82 24.88L199.27 24.88Q199.76 24.88 199.94 24.69Q200.11 24.50 200.11 24.04L200.11 24.04L200.11 3.04Q200.11 2.55 199.94 2.37Q199.76 2.20 199.27 2.20L199.27 2.20L196.82 2.20L196.82 1.08L208.58 1.08L208.58 2.20L206.13 2.20Q205.68 2.20 205.48 2.37Q205.29 2.55 205.29 3.04L205.29 3.04L205.29 24.04Q205.29 24.50 205.48 24.69Q205.68 24.88 206.13 24.88L206.13 24.88L208.58 24.88L208.58 26L196.82 26ZM220.80 26.63Q219.25 26.63 218.03 26.19Q216.81 25.75 216 25.09L216 25.09Q215.19 24.50 214.84 24.27Q214.50 24.04 214.18 24.04L214.18 24.04Q213.44 24.04 213.27 25.23L213.27 25.23L213.09 26.35L212.01 26.35L211.80 15.29L212.92 15.29Q213.41 17.95 214.58 20.29Q215.75 22.64 217.42 24.07Q219.08 25.51 221.00 25.51L221.00 25.51Q223.77 25.51 224.78 24.29Q225.80 23.06 225.80 21.52L225.80 21.52Q225.80 20.61 225.15 19.89Q224.50 19.17 223.28 18.37L223.28 18.37L215.79 13.54Q214.15 12.49 213.01 10.91Q211.87 9.34 211.87 7.17L211.87 7.17Q211.87 3.77 213.85 2.11Q215.83 0.45 218.73 0.45L218.73 0.45Q221.22 0.45 223.70 2.20L223.70 2.20Q224.50 2.83 224.96 2.83L224.96 2.83Q225.59 2.83 225.73 2.02L225.73 2.02L225.94 1.08L227.06 1.08L227.41 10.18L226.29 10.18Q225.63 7.76 224.44 5.80Q223.25 3.84 221.69 2.71Q220.13 1.57 218.45 1.57L218.45 1.57Q216.59 1.57 215.70 2.30Q214.81 3.04 214.81 4.51L214.81 4.51Q214.81 6.50 217.93 8.53L217.93 8.53L225.45 13.40Q226.89 14.34 227.74 15.99Q228.60 17.63 228.60 19.42L228.60 19.42Q228.60 21.24 227.73 22.88Q226.85 24.53 225.10 25.58Q223.35 26.63 220.80 26.63L220.80 26.63Z" fill="#121236"></path></g>
        
      </svg>